<?xml version="1.0" encoding="UTF-8" standalone="no"?>
<svg
   xmlns:dc="http://purl.org/dc/elements/1.1/"
   xmlns:cc="http://creativecommons.org/ns#"
   xmlns:rdf="http://www.w3.org/1999/02/22-rdf-syntax-ns#"
   xmlns:svg="http://www.w3.org/2000/svg"
   xmlns="http://www.w3.org/2000/svg"
   xmlns:sodipodi="http://sodipodi.sourceforge.net/DTD/sodipodi-0.dtd"
   xmlns:inkscape="http://www.inkscape.org/namespaces/inkscape"
   width="832"
   height="302"
   overflow="hidden"
   version="1.1"
   id="svg185"
   sodipodi:docname="classification.svg"
   inkscape:version="0.92.4 (5da689c313, 2019-01-14)">
  <metadata
     id="metadata189">
    <rdf:RDF>
      <cc:Work
         rdf:about="">
        <dc:format>image/svg+xml</dc:format>
        <dc:type
           rdf:resource="http://purl.org/dc/dcmitype/StillImage" />
      </cc:Work>
    </rdf:RDF>
  </metadata>
  <sodipodi:namedview
     pagecolor="#ffffff"
     bordercolor="#666666"
     borderopacity="1"
     objecttolerance="10"
     gridtolerance="10"
     guidetolerance="10"
     inkscape:pageopacity="0"
     inkscape:pageshadow="2"
     inkscape:window-width="3840"
     inkscape:window-height="2066"
     id="namedview187"
     showgrid="false"
     inkscape:zoom="4.0576923"
     inkscape:cx="524.87981"
     inkscape:cy="225.99749"
     inkscape:window-x="-11"
     inkscape:window-y="-11"
     inkscape:window-maximized="1"
     inkscape:current-layer="svg185" />
  <defs
     id="defs5">
    <clipPath
       id="clip0">
      <path
         d="M0 0 832 0 832 302 0 302Z"
         fill-rule="evenodd"
         clip-rule="evenodd"
         id="path2" />
    </clipPath>
  </defs>
  <g
     clip-path="url(#clip0)"
     id="g183">
    <rect
       x="0"
       y="0"
       width="830.583"
       height="302"
       fill="#FFFFFF"
       transform="scale(1.00171 1)"
       id="rect7" />
    <rect
       x="0"
       y="0"
       width="7.98636"
       height="7.99999"
       stroke="#548235"
       stroke-miterlimit="8"
       fill="#A9D18E"
       transform="matrix(1.00171 0 -0 1 806.5 192.5)"
       id="rect9" />
    <path
       d="M-1.49745 6.88753e-07-1.49756-220.519 1.49735-220.519 1.49745-6.88753e-07ZM-4.49247-219.021-0.000104871-228.006 4.49226-219.021Z"
       transform="matrix(-1.00171 -0 -0 1 13.5 291.506)"
       id="path11" />
    <path
       d="M-6.88753e-07 1.49745-220.519 1.49735-220.519-1.49756 6.88753e-07-1.49745ZM-219.021 4.49226-228.006-0.000104871-219.021-4.49247Z"
       transform="matrix(-1.00171 -0 -0 1 13.5 291.5)"
       id="path13" />
    <text
       font-weight="700"
       font-size="11"
       transform="matrix(1,0,0,0.998297,9.60577,19)"
       id="text19"
       style="font-weight:700;font-size:11px;font-family:Calibri, Calibri_MSFontService, sans-serif">Linear <tspan
   x="29.6845"
   y="0"
   id="tspan15">classification</tspan>
<tspan
   x="89.387001"
   y="0"
   id="tspan17">( i)</tspan>
</text>
    <path
       d="M-1.49745 6.88753e-07-1.49756-220.519 1.49735-220.519 1.49745-6.88753e-07ZM-4.49247-219.021-0.000104871-228.006 4.49226-219.021Z"
       transform="matrix(-1.00171 -0 -0 1 312.5 291.506)"
       id="path21" />
    <path
       d="M-6.88753e-07 1.49745-220.519 1.49735-220.519-1.49756 6.88753e-07-1.49745ZM-219.021 4.49226-228.006-0.000104871-219.021-4.49247Z"
       transform="matrix(-1.00171 -0 -0 1 312.5 291.5)"
       id="path23" />
    <text
       font-weight="700"
       font-size="11"
       transform="matrix(1,0,0,0.998297,308.684,19)"
       id="text29"
       style="font-weight:700;font-size:11px;font-family:Calibri, Calibri_MSFontService, sans-serif">Nonlinear classification (ii)</text>
    <path
       d="M-1.49745 6.88753e-07-1.49756-220.519 1.49735-220.519 1.49745-6.88753e-07ZM-4.49247-219.021-0.000104871-228.006 4.49226-219.021Z"
       transform="matrix(-1.00171 -0 -0 1 598.5 291.506)"
       id="path31" />
    <path
       d="M-6.88753e-07 1.49745-220.519 1.49735-220.519-1.49756 6.88753e-07-1.49745ZM-219.021 4.49226-228.006-0.000104871-219.021-4.49247Z"
       transform="matrix(-1.00171 -0 -0 1 598.5 291.5)"
       id="path33" />
    <text
       font-weight="700"
       font-size="11"
       transform="matrix(1,0,0,0.998297,594.526,19)"
       id="text39"
       style="font-weight:700;font-size:11px;font-family:Calibri, Calibri_MSFontService, sans-serif">Nonlinear classification (iii)</text>
    <path
       d="M0 0-141.761-203.293"
       stroke="#FF0000"
       stroke-miterlimit="8"
       fill="none"
       fill-rule="evenodd"
       transform="matrix(1.00171 8.75719e-08 8.74228e-08 -1 169.502 74.5)"
       id="path41" />
    <path
       d="M0 169C39.6611 153.137 79.3224 137.274 93.8007 109.107 108.279 80.9404 97.5743 40.4702 86.8696 0"
       stroke="#FF0000"
       stroke-miterlimit="8"
       fill="none"
       fill-rule="evenodd"
       transform="matrix(1.00171 0 -0 1 334.5 44.5)"
       id="path43" />
    <rect
       x="0"
       y="0"
       width="7.98636"
       height="7.00004"
       stroke="#2F528F"
       stroke-miterlimit="8"
       fill="#4472C4"
       transform="matrix(1.00171 0 -0 1 89.5 87.5)"
       id="rect45" />
    <rect
       x="0"
       y="0"
       width="7.98636"
       height="6.99994"
       stroke="#2F528F"
       stroke-miterlimit="8"
       fill="#4472C4"
       transform="matrix(1.00171 0 -0 1 105.5 103.5)"
       id="rect47" />
    <rect
       x="0"
       y="0"
       width="7.98636"
       height="6.99994"
       stroke="#2F528F"
       stroke-miterlimit="8"
       fill="#4472C4"
       transform="matrix(1.00171 0 -0 1 58.5 68.5)"
       id="rect49" />
    <rect
       x="0"
       y="0"
       width="7.98636"
       height="6.99994"
       stroke="#2F528F"
       stroke-miterlimit="8"
       fill="#4472C4"
       transform="matrix(1.00171 0 -0 1 40.5 218.5)"
       id="rect51" />
    <rect
       x="0"
       y="0"
       width="7.98636"
       height="6.99994"
       stroke="#2F528F"
       stroke-miterlimit="8"
       fill="#4472C4"
       transform="matrix(1.00171 0 -0 1 71.5 173.5)"
       id="rect53" />
    <rect
       x="0"
       y="0"
       width="7.98646"
       height="8.00009"
       stroke="#2F528F"
       stroke-miterlimit="8"
       fill="#4472C4"
       transform="matrix(1.00171 0 -0 1 90.5 128.5)"
       id="rect55" />
    <rect
       x="0"
       y="0"
       width="7.98646"
       height="7.99999"
       stroke="#2F528F"
       stroke-miterlimit="8"
       fill="#4472C4"
       transform="matrix(1.00171 0 -0 1 137.5 65.5)"
       id="rect57" />
    <rect
       x="0"
       y="0"
       width="7.98636"
       height="7.00004"
       stroke="#2F528F"
       stroke-miterlimit="8"
       fill="#4472C4"
       transform="matrix(1.00171 0 -0 1 40.5 178.5)"
       id="rect59" />
    <rect
       x="0"
       y="0"
       width="7.98646"
       height="7.99999"
       stroke="#2F528F"
       stroke-miterlimit="8"
       fill="#4472C4"
       transform="matrix(1.00171 0 -0 1 68.5 139.5)"
       id="rect61" />
    <rect
       x="0"
       y="0"
       width="6.98809"
       height="7.99999"
       stroke="#2F528F"
       stroke-miterlimit="8"
       fill="#4472C4"
       transform="matrix(1.00171 0 -0 1 42.5 110.5)"
       id="rect63" />
    <rect
       x="0"
       y="0"
       width="6.98809"
       height="7.99999"
       stroke="#548235"
       stroke-miterlimit="8"
       fill="#A9D18E"
       transform="matrix(1.00171 0 -0 1 223.5 135.5)"
       id="rect65" />
    <rect
       x="0"
       y="0"
       width="6.98809"
       height="7.00004"
       stroke="#548235"
       stroke-miterlimit="8"
       fill="#A9D18E"
       transform="matrix(1.00171 0 -0 1 136.5 202.5)"
       id="rect67" />
    <rect
       x="0"
       y="0"
       width="7.98646"
       height="7.00004"
       stroke="#548235"
       stroke-miterlimit="8"
       fill="#A9D18E"
       transform="matrix(1.00171 0 -0 1 191.5 125.5)"
       id="rect69" />
    <rect
       x="0"
       y="0"
       width="6.98809"
       height="8.00009"
       stroke="#548235"
       stroke-miterlimit="8"
       fill="#A9D18E"
       transform="matrix(1.00171 0 -0 1 219.5 89.5)"
       id="rect71" />
    <rect
       x="0"
       y="0"
       width="7.98636"
       height="7.99999"
       stroke="#548235"
       stroke-miterlimit="8"
       fill="#A9D18E"
       transform="matrix(1.00171 0 -0 1 100.5 195.5)"
       id="rect73" />
    <rect
       x="0"
       y="0"
       width="7.98636"
       height="7.99999"
       stroke="#548235"
       stroke-miterlimit="8"
       fill="#A9D18E"
       transform="matrix(1.00171 0 -0 1 174.5 208.5)"
       id="rect75" />
    <rect
       x="0"
       y="0"
       width="6.98809"
       height="7.99999"
       stroke="#548235"
       stroke-miterlimit="8"
       fill="#A9D18E"
       transform="matrix(1.00171 0 -0 1 198.5 185.5)"
       id="rect77" />
    <rect
       x="0"
       y="0"
       width="6.98809"
       height="7.99999"
       stroke="#548235"
       stroke-miterlimit="8"
       fill="#A9D18E"
       transform="matrix(1.00171 0 -0 1 213.5 232.5)"
       id="rect79" />
    <rect
       x="0"
       y="0"
       width="7.98636"
       height="7.99999"
       stroke="#548235"
       stroke-miterlimit="8"
       fill="#A9D18E"
       transform="matrix(1.00171 0 -0 1 141.5 235.5)"
       id="rect81" />
    <rect
       x="0"
       y="0"
       width="7.98636"
       height="8.00009"
       stroke="#548235"
       stroke-miterlimit="8"
       fill="#A9D18E"
       transform="matrix(1.00171 0 -0 1 161.5 165.5)"
       id="rect83" />
    <rect
       x="0"
       y="0"
       width="7.98636"
       height="7.99999"
       stroke="#548235"
       stroke-miterlimit="8"
       fill="#A9D18E"
       transform="matrix(1.00171 0 -0 1 157.5 132.5)"
       id="rect85" />
    <rect
       x="0"
       y="0"
       width="6.98809"
       height="7.00004"
       stroke="#548235"
       stroke-miterlimit="8"
       fill="#A9D18E"
       transform="matrix(1.00171 0 -0 1 110.5 223.5)"
       id="rect87" />
    <rect
       x="0"
       y="0"
       width="7.98646"
       height="7.99999"
       stroke="#548235"
       stroke-miterlimit="8"
       fill="#A9D18E"
       transform="matrix(1.00171 0 -0 1 162.5 248.5)"
       id="rect89" />
    <rect
       x="0"
       y="0"
       width="6.98809"
       height="7.99999"
       stroke="#548235"
       stroke-miterlimit="8"
       fill="#A9D18E"
       transform="matrix(1.00171 0 -0 1 190.5 238.5)"
       id="rect91" />
    <rect
       x="0"
       y="0"
       width="7.98636"
       height="7.99999"
       stroke="#548235"
       stroke-miterlimit="8"
       fill="#A9D18E"
       transform="matrix(1.00171 0 -0 1 92.5 248.5)"
       id="rect93" />
    <rect
       x="0"
       y="0"
       width="7.98636"
       height="7.00004"
       stroke="#2F528F"
       stroke-miterlimit="8"
       fill="#4472C4"
       transform="matrix(1.00171 0 -0 1 408.5 126.5)"
       id="rect95" />
    <rect
       x="0"
       y="0"
       width="7.98636"
       height="7.99999"
       stroke="#2F528F"
       stroke-miterlimit="8"
       fill="#4472C4"
       transform="matrix(1.00171 0 -0 1 377.5 106.5)"
       id="rect97" />
    <rect
       x="0"
       y="0"
       width="7.98636"
       height="7.00004"
       stroke="#2F528F"
       stroke-miterlimit="8"
       fill="#4472C4"
       transform="matrix(1.00171 0 -0 1 341.5 87.5)"
       id="rect99" />
    <rect
       x="0"
       y="0"
       width="6.98809"
       height="7.99999"
       stroke="#2F528F"
       stroke-miterlimit="8"
       fill="#4472C4"
       transform="matrix(1.00171 0 -0 1 361.5 149.5)"
       id="rect101" />
    <rect
       x="0"
       y="0"
       width="6.98809"
       height="7.99999"
       stroke="#2F528F"
       stroke-miterlimit="8"
       fill="#4472C4"
       transform="matrix(1.00171 0 -0 1 395.5 69.5)"
       id="rect103" />
    <rect
       x="0"
       y="0"
       width="6.98809"
       height="7.00004"
       stroke="#2F528F"
       stroke-miterlimit="8"
       fill="#4472C4"
       transform="matrix(1.00171 0 -0 1 334.5 182.5)"
       id="rect105" />
    <rect
       x="0"
       y="0"
       width="6.98809"
       height="7.00004"
       stroke="#548235"
       stroke-miterlimit="8"
       fill="#A9D18E"
       transform="matrix(1.00171 0 -0 1 486.5 184.5)"
       id="rect107" />
    <rect
       x="0"
       y="0"
       width="7.98636"
       height="6.99994"
       stroke="#548235"
       stroke-miterlimit="8"
       fill="#A9D18E"
       transform="matrix(1.00171 0 -0 1 483.5 82.5)"
       id="rect109" />
    <rect
       x="0"
       y="0"
       width="7.98636"
       height="6.99994"
       stroke="#548235"
       stroke-miterlimit="8"
       fill="#A9D18E"
       transform="matrix(1.00171 0 -0 1 505.5 99.5)"
       id="rect111" />
    <rect
       x="0"
       y="0"
       width="6.98809"
       height="7.99999"
       stroke="#548235"
       stroke-miterlimit="8"
       fill="#A9D18E"
       transform="matrix(1.00171 0 -0 1 490.5 142.5)"
       id="rect113" />
    <rect
       x="0"
       y="0"
       width="7.98636"
       height="7.99999"
       stroke="#548235"
       stroke-miterlimit="8"
       fill="#A9D18E"
       transform="matrix(1.00171 0 -0 1 453.5 122.5)"
       id="rect115" />
    <rect
       x="0"
       y="0"
       width="7.98646"
       height="8.00009"
       stroke="#548235"
       stroke-miterlimit="8"
       fill="#A9D18E"
       transform="matrix(1.00171 0 -0 1 449.5 89.5)"
       id="rect117" />
    <rect
       x="0"
       y="0"
       width="6.98809"
       height="7.99999"
       stroke="#548235"
       stroke-miterlimit="8"
       fill="#A9D18E"
       transform="matrix(1.00171 0 -0 1 448.5 48.5)"
       id="rect119" />
    <rect
       x="0"
       y="0"
       width="7.98636"
       height="7.99999"
       stroke="#548235"
       stroke-miterlimit="8"
       fill="#A9D18E"
       transform="matrix(1.00171 0 -0 1 457.5 205.5)"
       id="rect121" />
    <rect
       x="0"
       y="0"
       width="6.98809"
       height="6.99994"
       stroke="#548235"
       stroke-miterlimit="8"
       fill="#A9D18E"
       transform="matrix(1.00171 0 -0 1 426.5 195.5)"
       id="rect123" />
    <rect
       x="0"
       y="0"
       width="6.98809"
       height="7.99999"
       stroke="#548235"
       stroke-miterlimit="8"
       fill="#A9D18E"
       transform="matrix(1.00171 0 -0 1 454.5 159.5)"
       id="rect125" />
    <rect
       x="0"
       y="0"
       width="6.98809"
       height="7.99999"
       stroke="#548235"
       stroke-miterlimit="8"
       fill="#A9D18E"
       transform="matrix(1.00171 0 -0 1 433.5 255.5)"
       id="rect127" />
    <rect
       x="0"
       y="0"
       width="7.98636"
       height="7.99999"
       stroke="#548235"
       stroke-miterlimit="8"
       fill="#A9D18E"
       transform="matrix(1.00171 0 -0 1 396.5 235.5)"
       id="rect129" />
    <rect
       x="0"
       y="0"
       width="7.98636"
       height="8.00009"
       stroke="#548235"
       stroke-miterlimit="8"
       fill="#A9D18E"
       transform="matrix(1.00171 0 -0 1 392.5 202.5)"
       id="rect131" />
    <rect
       x="0"
       y="0"
       width="7.98636"
       height="8.00009"
       stroke="#548235"
       stroke-miterlimit="8"
       fill="#A9D18E"
       transform="matrix(1.00171 0 -0 1 337.5 237.5)"
       id="rect133" />
    <rect
       x="0"
       y="0"
       width="6.98809"
       height="7.99999"
       stroke="#548235"
       stroke-miterlimit="8"
       fill="#A9D18E"
       transform="matrix(1.00171 0 -0 1 488.5 232.5)"
       id="rect135" />
    <rect
       x="0"
       y="0"
       width="6.98809"
       height="7.00004"
       stroke="#2F528F"
       stroke-miterlimit="8"
       fill="#4472C4"
       transform="matrix(1.00171 0 -0 1 744.5 178.5)"
       id="rect137" />
    <rect
       x="0"
       y="0"
       width="7.98636"
       height="7.99999"
       stroke="#2F528F"
       stroke-miterlimit="8"
       fill="#4472C4"
       transform="matrix(1.00171 0 -0 1 712.5 158.5)"
       id="rect139" />
    <rect
       x="0"
       y="0"
       width="6.98809"
       height="7.99999"
       stroke="#2F528F"
       stroke-miterlimit="8"
       fill="#4472C4"
       transform="matrix(1.00171 0 -0 1 677.5 139.5)"
       id="rect141" />
    <rect
       x="0"
       y="0"
       width="6.98809"
       height="7.00004"
       stroke="#2F528F"
       stroke-miterlimit="8"
       fill="#4472C4"
       transform="matrix(1.00171 0 -0 1 730.5 122.5)"
       id="rect143" />
    <rect
       x="0"
       y="0"
       width="6.98809"
       height="7.99999"
       stroke="#2F528F"
       stroke-miterlimit="8"
       fill="#4472C4"
       transform="matrix(1.00171 0 -0 1 752.5 99.5)"
       id="rect145" />
    <rect
       x="0"
       y="0"
       width="7.98636"
       height="6.99994"
       stroke="#2F528F"
       stroke-miterlimit="8"
       fill="#4472C4"
       transform="matrix(1.00171 0 -0 1 770.5 134.5)"
       id="rect147" />
    <rect
       x="0"
       y="0"
       width="7.98636"
       height="6.99994"
       stroke="#548235"
       stroke-miterlimit="8"
       fill="#A9D18E"
       transform="matrix(1.00171 0 -0 1 673.5 82.5)"
       id="rect149" />
    <rect
       x="0"
       y="0"
       width="6.98809"
       height="6.99994"
       stroke="#548235"
       stroke-miterlimit="8"
       fill="#A9D18E"
       transform="matrix(1.00171 0 -0 1 696.5 99.5)"
       id="rect151" />
    <rect
       x="0"
       y="0"
       width="7.98636"
       height="7.99999"
       stroke="#548235"
       stroke-miterlimit="8"
       fill="#A9D18E"
       transform="matrix(1.00171 0 -0 1 644.5 122.5)"
       id="rect153" />
    <rect
       x="0"
       y="0"
       width="6.98809"
       height="8.00009"
       stroke="#548235"
       stroke-miterlimit="8"
       fill="#A9D18E"
       transform="matrix(1.00171 0 -0 1 640.5 89.5)"
       id="rect155" />
    <rect
       x="0"
       y="0"
       width="7.98636"
       height="7.99999"
       stroke="#548235"
       stroke-miterlimit="8"
       fill="#A9D18E"
       transform="matrix(1.00171 0 -0 1 658.5 168.5)"
       id="rect157" />
    <rect
       x="0"
       y="0"
       width="7.98636"
       height="8.00009"
       stroke="#548235"
       stroke-miterlimit="8"
       fill="#A9D18E"
       transform="matrix(1.00171 0 -0 1 631.5 204.5)"
       id="rect159" />
    <rect
       x="0"
       y="0"
       width="6.98809"
       height="7.99999"
       stroke="#548235"
       stroke-miterlimit="8"
       fill="#A9D18E"
       transform="matrix(1.00171 0 -0 1 656.5 227.5)"
       id="rect161" />
    <rect
       x="0"
       y="0"
       width="7.98636"
       height="7.99999"
       stroke="#548235"
       stroke-miterlimit="8"
       fill="#A9D18E"
       transform="matrix(1.00171 0 -0 1 687.5 247.5)"
       id="rect163" />
    <rect
       x="0"
       y="0"
       width="7.98636"
       height="8.00009"
       stroke="#548235"
       stroke-miterlimit="8"
       fill="#A9D18E"
       transform="matrix(1.00171 0 -0 1 705.5 200.5)"
       id="rect165" />
    <rect
       x="0"
       y="0"
       width="7.98636"
       height="7.99999"
       stroke="#548235"
       stroke-miterlimit="8"
       fill="#A9D18E"
       transform="matrix(1.00171 0 -0 1 761.5 66.5)"
       id="rect167" />
    <rect
       x="0"
       y="0"
       width="7.98636"
       height="7.99999"
       stroke="#548235"
       stroke-miterlimit="8"
       fill="#A9D18E"
       transform="matrix(1.00171 0 -0 1 798.5 94.5)"
       id="rect169" />
    <rect
       x="0"
       y="0"
       width="6.98809"
       height="7.00004"
       stroke="#548235"
       stroke-miterlimit="8"
       fill="#A9D18E"
       transform="matrix(1.00171 0 -0 1 803.5 151.5)"
       id="rect171" />
    <rect
       x="0"
       y="0"
       width="7.98636"
       height="6.99994"
       stroke="#548235"
       stroke-miterlimit="8"
       fill="#A9D18E"
       transform="matrix(1.00171 0 -0 1 733.5 212.5)"
       id="rect173" />
    <rect
       x="0"
       y="0"
       width="7.98636"
       height="7.99999"
       stroke="#548235"
       stroke-miterlimit="8"
       fill="#A9D18E"
       transform="matrix(1.00171 0 -0 1 780.5 232.5)"
       id="rect175" />
    <path
       d="M79.5411 1.7183C78.2269 2.52015 79.2776 3.96477 78.8554 4.81118 78.671 5.18059 78.3541 5.47283 78.1698 5.84225 76.751 8.68651 79.1053 4.95106 77.1411 7.90417 76.4855 9.8757 77.2677 8.03566 75.7698 9.96619 73.6161 12.7418 75.3609 11.3849 73.3699 12.7155 71.4047 15.67 74.0214 12.1929 71.6556 14.0901 71.3338 14.3482 71.2612 14.8291 70.9699 15.1211 70.6786 15.4131 70.2842 15.5793 69.9414 15.8084 68.238 18.3694 70.428 15.2229 68.227 17.8704 67.9632 18.1877 67.7458 18.5428 67.5414 18.9014 67.2879 19.3462 67.1829 19.8825 66.8557 20.276 66.5919 20.5933 66.17 20.7342 65.8271 20.9633 63.5427 24.0165 65.7395 20.7099 64.4558 23.7126 64.0058 24.7649 63.1289 25.2642 62.3986 26.1182 60.8747 27.9003 62.6654 26.5129 60.6844 27.8365 58.2344 31.5203 62.0494 25.9301 58.9701 29.8986 58.9687 29.9005 57.2566 32.475 56.9131 32.9916 56.6845 33.3352 56.5702 33.7934 56.2274 34.0225L55.1988 34.7099C55.0845 35.0535 55.0564 35.4395 54.856 35.7408 54.587 36.1452 54.2 36.4607 53.8274 36.7718 52.8625 37.5778 52.0232 37.8254 50.7418 38.1465 50.2846 38.261 49.8324 38.3975 49.3703 38.4901 48.6887 38.6267 47.9877 38.6648 47.3133 38.8338 46.6121 39.0095 45.9419 39.292 45.2562 39.5211 42.0038 41.6946 48.0962 37.7538 41.142 41.2394 39.923 41.8505 39.1257 42.331 37.7135 42.6141 37.0345 42.7502 35.3538 43.0588 34.6278 43.3014 34.044 43.4964 33.5074 43.8264 32.9136 43.9887 32.2429 44.1721 31.5382 44.1958 30.8566 44.3324 30.3945 44.425 29.9559 44.656 29.4851 44.6761 24.574 44.8855 19.6568 44.9052 14.7426 45.0197 14.1712 45.1343 13.5589 45.1217 13.0284 45.3634 9.50304 46.9697 12.3322 46.5158 8.91419 48.8 7.67771 49.6263 6.76761 50.1371 5.82853 51.5493 4.91424 52.9239 5.48572 52.3512 4.11429 53.2677 3.65715 53.955 3.00344 54.5459 2.74286 55.3296 2.62863 55.6732 2.57559 56.0439 2.40006 56.3605 1.99982 57.0827 1.02863 58.4226 1.02863 58.4226 0.0873489 61.2529 0.445113 59.7673 0.000104609 62.8901 0.0315921 63.396-0.170723 67.7028 0.68582 69.4197 0.870142 69.7891 1.13208 70.1146 1.37154 70.4507 2.01227 71.3498 2.57182 72.1537 3.42858 72.8563 4.31305 73.5817 5.36333 74.1083 6.17144 74.9184 6.51424 75.262 6.80547 75.6668 7.19996 75.9493 7.61578 76.2471 8.1245 76.3878 8.57128 76.6367 9.15385 76.9611 9.68956 77.3689 10.2856 77.6676 13.1971 79.1268 8.40788 75.6109 14.0569 79.3859 16.4147 80.9615 15.3322 80.4994 17.1426 81.1042 20.0896 83.0738 16.3612 80.7127 19.1996 82.1353 22.6411 83.8602 17.3946 81.7035 21.5996 83.5099 22.7309 83.9959 23.9726 84.2497 25.0281 84.8845 25.5995 85.2282 26.1463 85.6168 26.7424 85.9155 29.5806 87.338 27.4098 86.0551 29.4851 86.9466 30.4901 87.3783 31.0239 87.7046 31.8851 88.3211 32.3501 88.6541 32.7454 89.096 33.2565 89.3522 33.903 89.6762 35.3135 90.0394 35.3135 90.0394 38.3185 93.0517 34.5067 89.3654 37.3707 91.7577 37.7432 92.0689 38.0267 92.4777 38.3992 92.7888 38.7158 93.0533 39.1112 93.2117 39.4277 93.4762 39.8002 93.7873 40.0837 94.196 40.4563 94.5071 40.7728 94.7716 41.1683 94.93 41.4849 95.1945 41.8574 95.5056 42.1453 95.9092 42.5134 96.2254 42.9472 96.5982 43.4277 96.9128 43.8848 97.2564 45.5552 99.7681 43.3321 96.7946 45.9419 98.9747 46.2584 99.2391 46.3363 99.7137 46.6276 100.006 46.9189 100.298 47.3309 100.439 47.6561 100.693 48.3607 101.242 49.0498 101.813 49.7133 102.411 50.1937 102.845 50.598 103.359 51.0846 103.786 51.5146 104.163 52.0313 104.434 52.456 104.817 53.1769 105.467 53.7374 106.296 54.5132 106.879 56.2141 108.158 55.409 107.592 56.9131 108.597 58.2404 110.593 56.8867 108.844 59.6559 111.003 63.6165 114.091 58.0367 110.264 61.7129 112.721 62.8688 114.459 61.7712 113.266 63.4272 114.096 64.4889 114.628 64.7395 115.191 65.8271 115.814 66.1409 115.994 66.5235 116.015 66.8557 116.158 71.765 118.267 64.8577 115.605 69.5985 117.189 70.1823 117.384 70.7365 117.659 71.3127 117.876 72.711 118.402 72.1808 118.03 73.7127 118.907 74.0704 119.112 74.3503 119.464 74.7412 119.594 75.4006 119.815 76.1101 119.84 76.7983 119.938 77.6767 120.064 80.9674 120.43 81.941 120.625 82.8652 120.811 83.7472 121.208 84.6839 121.313 89.8172 121.884 86.7362 121.599 93.9408 122 97.9407 121.886 101.95 121.949 105.941 121.656 106.661 121.604 107.396 121.371 107.998 120.969L109.026 120.282C110.497 117.333 108.802 120.163 110.74 118.22 111.297 117.662 111.753 116.443 112.112 115.814 112.316 115.456 112.569 115.127 112.797 114.783 114.047 111.025 112.055 116.716 113.826 112.721 114.12 112.059 114.111 111.262 114.512 110.659 114.969 109.972 115.515 109.336 115.883 108.597 116.424 107.513 117.113 105.99 117.94 105.161L118.969 104.13C119.63 100.814 118.82 103.74 119.997 101.38 120.273 100.829 120.357 100.185 120.683 99.662 120.94 99.2499 121.43 99.0266 121.712 98.6311 122.009 98.2141 122.134 97.6957 122.397 97.2564 122.821 96.5481 123.769 95.1945 123.769 95.1945 124.582 91.1203 123.513 95.3417 124.797 92.4451 125.091 91.783 125.254 91.0705 125.483 90.3832L126.169 88.3211C126.283 87.9775 126.424 87.6417 126.511 87.2902L127.197 84.5409C127.311 84.0827 127.365 83.6048 127.54 83.1662 127.769 82.5935 128.031 82.0331 128.226 81.4479 128.375 80.9999 128.439 80.5274 128.569 80.0733 128.668 79.7249 128.812 79.3906 128.911 79.0423 129.151 78.2015 129.532 76.2186 129.94 75.6057L130.626 74.5747C130.74 74.1165 130.803 73.6423 130.968 73.2001 131.705 71.232 131.571 72.5019 131.997 70.7944 132.138 70.2278 132.199 69.6428 132.34 69.0761 132.428 68.7247 132.583 68.3935 132.683 68.0451 132.812 67.591 132.89 67.1229 133.026 66.6705 133.233 65.9765 133.57 65.3188 133.711 64.6084 133.826 64.0357 133.923 63.4593 134.054 62.8901 134.7 60.0853 134.607 60.5405 135.426 58.0788L135.768 57.0479C135.654 54.986 135.597 52.9201 135.426 50.862 135.301 49.3654 134.745 47.4465 134.397 46.0507 134.283 45.5925 134.146 45.1392 134.054 44.6761 133.527 42.0319 133.853 43.5238 133.026 40.2085 132.911 39.7503 132.858 39.2723 132.683 38.8338 132.454 38.2611 132.192 37.7007 131.997 37.1155 131.281 34.9618 132.025 36.1965 131.311 33.3352 131.162 32.7368 130.842 32.1944 130.626 31.6169 130.499 31.2777 130.434 30.9149 130.283 30.5859 129.747 29.423 128.973 28.3644 128.569 27.1493 128.095 25.7264 128.426 26.4197 127.54 25.0873 127.278 24.0356 127.301 23.4728 126.511 22.6816 126.22 22.3896 125.826 22.2234 125.483 21.9943 125.049 20.6904 125.192 20.608 123.769 19.5887 123.475 19.3781 123.083 19.3595 122.74 19.245 122.397 18.7868 122.145 18.2431 121.712 17.8704 121.323 17.5369 120.784 17.4372 120.34 17.183 119.982 16.9781 119.68 16.6804 119.312 16.4958 118.988 16.3338 118.606 16.3141 118.283 16.1521 117.915 15.9673 117.623 15.6495 117.254 15.4647 116.931 15.3027 116.558 15.2638 116.226 15.1211 115.756 14.9192 115.298 14.6879 114.855 14.4338 114.497 14.2289 114.205 13.9092 113.826 13.7464 113.393 13.5604 112.912 13.5173 112.455 13.4028 112.112 13.1737 111.805 12.8782 111.426 12.7155 109.887 12.0544 110.361 12.6973 109.026 12.0281 107.036 11.0307 109.031 11.5576 106.626 10.6535 104.31 9.78311 106.157 10.7957 104.226 9.96619 101.68 8.87253 103.93 9.74169 101.826 8.59151 100.929 8.10088 99.9341 7.78515 99.0835 7.21682L97.0265 5.84225C96.7979 5.49852 96.6901 5.03012 96.3407 4.81118 95.7278 4.42719 94.2836 4.12394 94.2836 4.12394 93.9408 3.78022 93.6585 3.36247 93.2551 3.09288 92.9544 2.89197 92.5498 2.91127 92.2265 2.74926 91.858 2.5645 91.5558 2.26681 91.198 2.06192 90.7543 1.80775 90.2704 1.62875 89.8266 1.37458 89.4688 1.16969 89.1746 0.855009 88.7981 0.687237 88.1376 0.393006 86.7409 0 86.7409 0 79.1986 0.359976 80.8553 0.916455 79.5411 1.7183Z"
       stroke="#FF0000"
       stroke-miterlimit="8"
       fill="none"
       fill-rule="evenodd"
       transform="matrix(1.00171 0 -0 1 661.5 77.5)"
       id="path177" />
    <rect
       x="0"
       y="0"
       width="7.98646"
       height="6.99994"
       stroke="#548235"
       stroke-miterlimit="8"
       fill="#A9D18E"
       transform="matrix(1.00171 0 -0 1 713.5 64.5)"
       id="rect179" />
    <rect
       x="0"
       y="0"
       width="7.98636"
       height="7.99999"
       stroke="#548235"
       stroke-miterlimit="8"
       fill="#A9D18E"
       transform="matrix(1.00171 0 -0 1 741.5 253.5)"
       id="rect181" />
  </g>
</svg>
