<svg width="945" height="378" xmlns="http://www.w3.org/2000/svg" xmlns:xlink="http://www.w3.org/1999/xlink" overflow="hidden"><defs><clipPath id="clip0"><path d="M0 0 945 0 945 378 0 378Z" fill-rule="evenodd" clip-rule="evenodd"/></clipPath></defs><g clip-path="url(#clip0)"><rect x="0" y="0" width="944.833" height="378" fill="#FFFFFF" transform="scale(1.00018 1)"/><path d="M-1.49974 6.89803e-07-1.49984-220.759 1.49964-220.759 1.49974-6.89803e-07ZM-4.49931-219.259-0.000104987-228.258 4.49911-219.259Z" transform="matrix(-1.00018 -0 -0 1 63.5 333.758)"/><path d="M-6.89803e-07 1.49974-220.759 1.49964-220.759-1.49984 6.89803e-07-1.49974ZM-219.259 4.49911-228.258-0.000104987-219.259-4.49931Z" transform="matrix(-1.00018 -0 -0 1 63.5 333.5)"/><text font-family="Calibri,Calibri_MSFontService,sans-serif" font-weight="700" font-size="11" transform="matrix(1 0 0 0.999824 59.7374 61)">Linear<tspan x="27.3382" y="0">-</tspan><tspan x="30.6721" y="0">classification</tspan></text><path d="M-1.49974 6.89803e-07-1.49984-220.759 1.49964-220.759 1.49974-6.89803e-07ZM-4.49931-219.259-0.000104987-228.258 4.49911-219.259Z" transform="matrix(-1.00018 -0 -0 1 362.5 333.758)"/><path d="M-6.89803e-07 1.49974-220.759 1.49964-220.759-1.49984 6.89803e-07-1.49974ZM-219.259 4.49911-228.258-0.000104987-219.259-4.49931Z" transform="matrix(-1.00018 -0 -0 1 362.5 333.5)"/><text font-family="Calibri,Calibri_MSFontService,sans-serif" font-weight="700" font-size="11" transform="matrix(1 0 0 0.999824 358.689 61)">Linear<tspan x="27.3382" y="0">-</tspan><tspan x="30.6721" y="0">classification</tspan></text><path d="M-1.49974 6.89803e-07-1.49984-220.759 1.49964-220.759 1.49974-6.89803e-07ZM-4.49931-219.259-0.000104987-228.258 4.49911-219.259Z" transform="matrix(-1.00018 -0 -0 1 648.5 333.758)"/><path d="M-6.89803e-07 1.49974-220.759 1.49964-220.759-1.49984 6.89803e-07-1.49974ZM-219.259 4.49911-228.258-0.000104987-219.259-4.49931Z" transform="matrix(-1.00018 -0 -0 1 648.5 333.5)"/><text font-family="Calibri,Calibri_MSFontService,sans-serif" font-weight="700" font-size="11" transform="matrix(1 0 0 0.999824 644.41 61)">Nonlinear<tspan x="43.8411" y="0">-</tspan>classification</text><path d="M0 0-141.917-203.517" stroke="#FF0000" stroke-miterlimit="8" fill="none" fill-rule="evenodd" transform="matrix(1.00018 8.74382e-08 8.74228e-08 -1 219.442 116.5)"/><path d="M0 169C39.7218 153.137 79.4436 137.274 93.9441 109.107 108.445 80.9404 97.7234 40.4702 87.0024 0" stroke="#FF0000" stroke-miterlimit="8" fill="none" fill-rule="evenodd" transform="matrix(1.00018 0 -0 1 384.5 86.5001)"/><rect x="0" y="0" width="7.99863" height="8" stroke="#2F528F" stroke-miterlimit="8" fill="#4472C4" transform="matrix(1.00018 0 -0 1 139.5 129.5)"/><rect x="0" y="0" width="7.99863" height="8" stroke="#2F528F" stroke-miterlimit="8" fill="#4472C4" transform="matrix(1.00018 0 -0 1 155.5 145.5)"/><rect x="0" y="0" width="7.99863" height="7" stroke="#2F528F" stroke-miterlimit="8" fill="#4472C4" transform="matrix(1.00018 0 -0 1 108.5 110.5)"/><rect x="0" y="0" width="7.99863" height="8" stroke="#2F528F" stroke-miterlimit="8" fill="#4472C4" transform="matrix(1.00018 0 -0 1 90.5 260.5)"/><rect x="0" y="0" width="6.99874" height="7" stroke="#2F528F" stroke-miterlimit="8" fill="#4472C4" transform="matrix(1.00018 0 -0 1 122.5 215.5)"/><rect x="0" y="0" width="6.99874" height="7" stroke="#2F528F" stroke-miterlimit="8" fill="#4472C4" transform="matrix(1.00018 0 -0 1 141.5 171.5)"/><rect x="0" y="0" width="7.99853" height="8" stroke="#2F528F" stroke-miterlimit="8" fill="#4472C4" transform="matrix(1.00018 0 -0 1 187.5 107.5)"/><rect x="0" y="0" width="7.99863" height="7" stroke="#2F528F" stroke-miterlimit="8" fill="#4472C4" transform="matrix(1.00018 0 -0 1 90.5 220.5)"/><rect x="0" y="0" width="6.99874" height="8" stroke="#2F528F" stroke-miterlimit="8" fill="#4472C4" transform="matrix(1.00018 0 -0 1 119.5 181.5)"/><rect x="0" y="0" width="6.99874" height="7" stroke="#2F528F" stroke-miterlimit="8" fill="#4472C4" transform="matrix(1.00018 0 -0 1 92.5 153.5)"/><rect x="0" y="0" width="6.99874" height="7" stroke="#548235" stroke-miterlimit="8" fill="#A9D18E" transform="matrix(1.00018 0 -0 1 273.5 178.5)"/><rect x="0" y="0" width="6.99874" height="7" stroke="#548235" stroke-miterlimit="8" fill="#A9D18E" transform="matrix(1.00018 0 -0 1 186.5 244.5)"/><rect x="0" y="0" width="7.99853" height="7" stroke="#548235" stroke-miterlimit="8" fill="#A9D18E" transform="matrix(1.00018 0 -0 1 241.5 167.5)"/><rect x="0" y="0" width="7.99853" height="7" stroke="#548235" stroke-miterlimit="8" fill="#A9D18E" transform="matrix(1.00018 0 -0 1 269.5 132.5)"/><rect x="0" y="0" width="7.99853" height="8" stroke="#548235" stroke-miterlimit="8" fill="#A9D18E" transform="matrix(1.00018 0 -0 1 150.5 237.5)"/><rect x="0" y="0" width="7.99863" height="8" stroke="#548235" stroke-miterlimit="8" fill="#A9D18E" transform="matrix(1.00018 0 -0 1 224.5 250.5)"/><rect x="0" y="0" width="7.99863" height="7" stroke="#548235" stroke-miterlimit="8" fill="#A9D18E" transform="matrix(1.00018 0 -0 1 248.5 228.5)"/><rect x="0" y="0" width="6.99874" height="8" stroke="#548235" stroke-miterlimit="8" fill="#A9D18E" transform="matrix(1.00018 0 -0 1 263.5 274.5)"/><rect x="0" y="0" width="7.99853" height="8" stroke="#548235" stroke-miterlimit="8" fill="#A9D18E" transform="matrix(1.00018 0 -0 1 191.5 277.5)"/><rect x="0" y="0" width="6.99874" height="8" stroke="#548235" stroke-miterlimit="8" fill="#A9D18E" transform="matrix(1.00018 0 -0 1 212.5 207.5)"/><rect x="0" y="0" width="7.99853" height="8" stroke="#548235" stroke-miterlimit="8" fill="#A9D18E" transform="matrix(1.00018 0 -0 1 207.5 174.5)"/><rect x="0" y="0" width="7.99853" height="8" stroke="#548235" stroke-miterlimit="8" fill="#A9D18E" transform="matrix(1.00018 0 -0 1 160.5 265.5)"/><rect x="0" y="0" width="7.99853" height="7" stroke="#548235" stroke-miterlimit="8" fill="#A9D18E" transform="matrix(1.00018 0 -0 1 212.5 291.5)"/><rect x="0" y="0" width="7.99863" height="8" stroke="#548235" stroke-miterlimit="8" fill="#A9D18E" transform="matrix(1.00018 0 -0 1 240.5 280.5)"/><rect x="0" y="0" width="7.99863" height="7" stroke="#548235" stroke-miterlimit="8" fill="#A9D18E" transform="matrix(1.00018 0 -0 1 142.5 291.5)"/><rect x="0" y="0" width="7.99863" height="7" stroke="#2F528F" stroke-miterlimit="8" fill="#4472C4" transform="matrix(1.00018 0 -0 1 458.5 168.5)"/><rect x="0" y="0" width="7.99863" height="8" stroke="#2F528F" stroke-miterlimit="8" fill="#4472C4" transform="matrix(1.00018 0 -0 1 427.5 148.5)"/><rect x="0" y="0" width="7.99853" height="8" stroke="#2F528F" stroke-miterlimit="8" fill="#4472C4" transform="matrix(1.00018 0 -0 1 391.5 129.5)"/><rect x="0" y="0" width="6.99874" height="8" stroke="#2F528F" stroke-miterlimit="8" fill="#4472C4" transform="matrix(1.00018 0 -0 1 411.5 191.5)"/><rect x="0" y="0" width="7.99853" height="8" stroke="#2F528F" stroke-miterlimit="8" fill="#4472C4" transform="matrix(1.00018 0 -0 1 444.5 111.5)"/><rect x="0" y="0" width="6.99874" height="7" stroke="#2F528F" stroke-miterlimit="8" fill="#4472C4" transform="matrix(1.00018 0 -0 1 384.5 224.5)"/><rect x="0" y="0" width="6.99874" height="7" stroke="#548235" stroke-miterlimit="8" fill="#A9D18E" transform="matrix(1.00018 0 -0 1 536.5 226.5)"/><rect x="0" y="0" width="6.99885" height="7" stroke="#548235" stroke-miterlimit="8" fill="#A9D18E" transform="matrix(1.00018 0 -0 1 533.5 124.5)"/><rect x="0" y="0" width="7.99863" height="7" stroke="#548235" stroke-miterlimit="8" fill="#A9D18E" transform="matrix(1.00018 0 -0 1 555.5 141.5)"/><rect x="0" y="0" width="6.99874" height="8" stroke="#548235" stroke-miterlimit="8" fill="#A9D18E" transform="matrix(1.00018 0 -0 1 540.5 184.5)"/><rect x="0" y="0" width="7.99853" height="8" stroke="#548235" stroke-miterlimit="8" fill="#A9D18E" transform="matrix(1.00018 0 -0 1 503.5 164.5)"/><rect x="0" y="0" width="7.99863" height="8" stroke="#548235" stroke-miterlimit="8" fill="#A9D18E" transform="matrix(1.00018 0 -0 1 499.5 131.5)"/><rect x="0" y="0" width="6.99874" height="8" stroke="#548235" stroke-miterlimit="8" fill="#A9D18E" transform="matrix(1.00018 0 -0 1 498.5 90.5001)"/><rect x="0" y="0" width="7.99863" height="7" stroke="#548235" stroke-miterlimit="8" fill="#A9D18E" transform="matrix(1.00018 0 -0 1 507.5 248.5)"/><rect x="0" y="0" width="6.99874" height="7" stroke="#548235" stroke-miterlimit="8" fill="#A9D18E" transform="matrix(1.00018 0 -0 1 476.5 237.5)"/><rect x="0" y="0" width="6.99874" height="7" stroke="#548235" stroke-miterlimit="8" fill="#A9D18E" transform="matrix(1.00018 0 -0 1 504.5 202.5)"/><rect x="0" y="0" width="6.99885" height="8" stroke="#548235" stroke-miterlimit="8" fill="#A9D18E" transform="matrix(1.00018 0 -0 1 483.5 297.5)"/><rect x="0" y="0" width="7.99863" height="8" stroke="#548235" stroke-miterlimit="8" fill="#A9D18E" transform="matrix(1.00018 0 -0 1 446.5 277.5)"/><rect x="0" y="0" width="6.99874" height="8" stroke="#548235" stroke-miterlimit="8" fill="#A9D18E" transform="matrix(1.00018 0 -0 1 442.5 244.5)"/><rect x="0" y="0" width="6.99874" height="8" stroke="#548235" stroke-miterlimit="8" fill="#A9D18E" transform="matrix(1.00018 0 -0 1 387.5 279.5)"/><rect x="0" y="0" width="6.99874" height="8" stroke="#548235" stroke-miterlimit="8" fill="#A9D18E" transform="matrix(1.00018 0 -0 1 538.5 274.5)"/><rect x="0" y="0" width="7.99853" height="8" stroke="#2F528F" stroke-miterlimit="8" fill="#4472C4" transform="matrix(1.00018 0 -0 1 793.5 220.5)"/><rect x="0" y="0" width="7.99853" height="7" stroke="#2F528F" stroke-miterlimit="8" fill="#4472C4" transform="matrix(1.00018 0 -0 1 762.5 201.5)"/><rect x="0" y="0" width="7.99863" height="8" stroke="#2F528F" stroke-miterlimit="8" fill="#4472C4" transform="matrix(1.00018 0 -0 1 726.5 181.5)"/><rect x="0" y="0" width="6.99885" height="7" stroke="#2F528F" stroke-miterlimit="8" fill="#4472C4" transform="matrix(1.00018 0 -0 1 780.5 164.5)"/><rect x="0" y="0" width="7.99863" height="7" stroke="#2F528F" stroke-miterlimit="8" fill="#4472C4" transform="matrix(1.00018 0 -0 1 801.5 142.5)"/><rect x="0" y="0" width="6.99874" height="7" stroke="#2F528F" stroke-miterlimit="8" fill="#4472C4" transform="matrix(1.00018 0 -0 1 820.5 176.5)"/><rect x="0" y="0" width="7.99863" height="7" stroke="#548235" stroke-miterlimit="8" fill="#A9D18E" transform="matrix(1.00018 0 -0 1 723.5 124.5)"/><rect x="0" y="0" width="6.99885" height="7" stroke="#548235" stroke-miterlimit="8" fill="#A9D18E" transform="matrix(1.00018 0 -0 1 746.5 141.5)"/><rect x="0" y="0" width="6.99874" height="8" stroke="#548235" stroke-miterlimit="8" fill="#A9D18E" transform="matrix(1.00018 0 -0 1 694.5 164.5)"/><rect x="0" y="0" width="6.99874" height="8" stroke="#548235" stroke-miterlimit="8" fill="#A9D18E" transform="matrix(1.00018 0 -0 1 690.5 131.5)"/><rect x="0" y="0" width="7.99863" height="8" stroke="#548235" stroke-miterlimit="8" fill="#A9D18E" transform="matrix(1.00018 0 -0 1 708.5 210.5)"/><rect x="0" y="0" width="7.99853" height="7" stroke="#548235" stroke-miterlimit="8" fill="#A9D18E" transform="matrix(1.00018 0 -0 1 681.5 247.5)"/><rect x="0" y="0" width="7.99863" height="8" stroke="#548235" stroke-miterlimit="8" fill="#A9D18E" transform="matrix(1.00018 0 -0 1 705.5 269.5)"/><rect x="0" y="0" width="6.99874" height="8" stroke="#548235" stroke-miterlimit="8" fill="#A9D18E" transform="matrix(1.00018 0 -0 1 737.5 289.5)"/><rect x="0" y="0" width="7.99863" height="8" stroke="#548235" stroke-miterlimit="8" fill="#A9D18E" transform="matrix(1.00018 0 -0 1 755.5 242.5)"/><rect x="0" y="0" width="7.99863" height="8" stroke="#548235" stroke-miterlimit="8" fill="#A9D18E" transform="matrix(1.00018 0 -0 1 811.5 108.5)"/><rect x="0" y="0" width="6.99874" height="8" stroke="#548235" stroke-miterlimit="8" fill="#A9D18E" transform="matrix(1.00018 0 -0 1 848.5 136.5)"/><rect x="0" y="0" width="7.99863" height="7" stroke="#548235" stroke-miterlimit="8" fill="#A9D18E" transform="matrix(1.00018 0 -0 1 852.5 193.5)"/><rect x="0" y="0" width="7.99863" height="8" stroke="#548235" stroke-miterlimit="8" fill="#A9D18E" transform="matrix(1.00018 0 -0 1 783.5 254.5)"/><rect x="0" y="0" width="7.99863" height="8" stroke="#548235" stroke-miterlimit="8" fill="#A9D18E" transform="matrix(1.00018 0 -0 1 830.5 274.5)"/><rect x="0" y="0" width="7.99853" height="8" stroke="#385723" stroke-miterlimit="8" fill="#548235" transform="matrix(1.00018 0 -0 1 856.5 235.5)"/><path d="M79.6628 1.73239C78.3465 2.5408 79.3988 3.99727 78.976 4.85062 78.7914 5.22306 78.4739 5.51769 78.2893 5.89013 76.8684 8.75771 79.2263 4.99164 77.2591 7.96895 76.6025 9.95664 77.3859 8.10152 75.8857 10.0479 73.7287 12.8462 75.4762 11.4782 73.4821 12.8197 71.5139 15.7985 74.1346 12.2929 71.7652 14.2056 71.443 14.4658 71.3703 14.9506 71.0785 15.245 70.7867 15.5395 70.3917 15.707 70.0484 15.938 68.3424 18.5199 70.5358 15.3477 68.3314 18.0168 68.0672 18.3367 67.8495 18.6948 67.6448 19.0563 67.3908 19.5048 67.2857 20.0454 66.958 20.4422 66.6938 20.7621 66.2712 20.9042 65.9278 21.1352 63.6399 24.2133 65.8401 20.8796 64.5544 23.907 64.1038 24.9678 63.2255 25.4713 62.4941 26.3323 60.9678 28.129 62.7612 26.7302 60.7772 28.0647 58.3235 31.7787 62.1444 26.1427 59.0604 30.1436 59.0589 30.1455 57.3442 32.7412 57.0002 33.262 56.7712 33.6084 56.6567 34.0704 56.3134 34.3014L55.2832 34.9944C55.1688 35.3408 55.1406 35.7299 54.9399 36.0338 54.6705 36.4414 54.2829 36.7595 53.9098 37.0732 52.9434 37.8858 52.1028 38.1354 50.8194 38.4591 50.3616 38.5746 49.9086 38.7122 49.4459 38.8056 48.7632 38.9433 48.0611 38.9817 47.3857 39.1521 46.6834 39.3293 46.0121 39.6141 45.3254 39.8451 42.0681 42.0364 48.1698 38.0632 41.2049 41.5775 39.984 42.1935 39.1856 42.678 37.7712 42.9634 37.0911 43.1006 35.4079 43.4118 34.6808 43.6563 34.0961 43.8529 33.5586 44.1856 32.9639 44.3493 32.2923 44.5342 31.5864 44.558 30.9038 44.6958 30.441 44.7891 30.0017 45.022 29.5302 45.0422 24.6116 45.2533 19.6868 45.2732 14.7652 45.3887 14.1929 45.5042 13.5796 45.4915 13.0483 45.7352 9.51758 47.3547 12.3511 46.897 8.92783 49.2 7.68945 50.033 6.77796 50.5481 5.83744 51.9718 4.92176 53.3577 5.49411 52.7803 4.12058 53.7043 3.66274 54.3972 3.00804 54.993 2.74706 55.7831 2.63265 56.1295 2.57953 56.5032 2.40373 56.8225 2.00288 57.5506 1.0302 58.9014 1.0302 58.9014 0.0874825 61.7549 0.445794 60.2571 0.00010477 63.4056 0.0316404 63.9156-0.170984 68.2577 0.686869 69.9887 0.871473 70.3611 1.13382 70.6893 1.37363 71.0281 2.01535 71.9346 2.57576 72.7451 3.43382 73.4535 4.31965 74.1848 5.37153 74.7157 6.18088 75.5324 6.52421 75.8788 6.81589 76.287 7.21097 76.5718 7.62743 76.8721 8.13692 77.0139 8.5844 77.2648 9.16786 77.5919 9.70438 78.003 10.3014 78.3042 13.2173 79.7754 8.42074 76.2307 14.0784 80.0366 16.4398 81.6251 15.3556 81.1592 17.1688 81.769 20.1204 83.7547 16.3863 81.3742 19.229 82.8085 22.6757 84.5475 17.4212 82.3731 21.6326 84.1943 22.7657 84.6843 24.0093 84.9403 25.0664 85.5803 25.6387 85.9267 26.1863 86.3185 26.7833 86.6197 29.6259 88.0538 27.4517 86.7604 29.5302 87.6592 30.5368 88.0944 31.0714 88.4234 31.9339 89.0451 32.3996 89.3807 32.7955 89.8263 33.3074 90.0846 33.9549 90.4112 35.3676 90.7774 35.3676 90.7774 38.3771 93.8144 34.5595 90.0979 37.4279 92.5098 37.8009 92.8235 38.0849 93.2357 38.458 93.5493 38.775 93.816 39.171 93.9757 39.488 94.2423 39.8611 94.556 40.1451 94.9681 40.5181 95.2817 40.8352 95.5483 41.2313 95.7081 41.5483 95.9747 41.9214 96.2884 42.2098 96.6953 42.5784 97.0141 43.0129 97.3899 43.4941 97.7071 43.952 98.0535 45.6249 100.586 43.3984 97.5879 46.0121 99.7859 46.3292 100.053 46.4071 100.531 46.6989 100.825 46.9907 101.12 47.4033 101.263 47.729 101.518 48.4346 102.072 49.1249 102.647 49.7893 103.251 50.2705 103.688 50.6754 104.206 51.1627 104.637 51.5934 105.017 52.1109 105.29 52.5363 105.676 53.2582 106.332 53.8196 107.167 54.5965 107.755 56.3001 109.044 55.4938 108.474 57.0002 109.487 58.3295 111.5 56.9738 109.736 59.7471 111.913 63.7138 115.026 58.1255 111.168 61.8073 113.645 62.965 115.397 61.8657 114.194 63.5243 115.031 64.5876 115.568 64.8385 116.135 65.9278 116.763 66.2421 116.945 66.6252 116.966 66.958 117.11 71.8748 119.236 64.9569 116.552 69.7049 118.149 70.2897 118.346 70.8447 118.624 71.4218 118.842 72.8223 119.372 72.2912 118.997 73.8254 119.882 74.1837 120.088 74.464 120.443 74.8555 120.575 75.516 120.797 76.2265 120.822 76.9158 120.921 77.7956 121.048 81.0913 121.417 82.0664 121.614 82.9919 121.801 83.8753 122.202 84.8134 122.307 89.9546 122.883 86.8689 122.596 94.0845 123 98.0906 122.885 102.106 122.949 106.103 122.654 106.825 122.6 107.56 122.366 108.163 121.961L109.193 121.268C110.666 118.295 108.968 121.148 110.91 119.189 111.468 118.626 111.924 117.398 112.283 116.763 112.488 116.402 112.741 116.07 112.97 115.724 114.222 111.935 112.226 117.673 114 113.645 114.294 112.978 114.285 112.174 114.687 111.566 115.145 110.873 115.691 110.232 116.06 109.487 116.602 108.394 117.292 106.859 118.121 106.023L119.151 104.983C119.813 101.641 119.002 104.59 120.181 102.211 120.457 101.655 120.541 101.006 120.868 100.479 121.125 100.063 121.616 99.8382 121.898 99.4395 122.195 99.0191 122.321 98.4965 122.585 98.0535 123.009 97.3394 123.958 95.9747 123.958 95.9747 124.772 91.8672 123.702 96.1231 124.988 93.2028 125.282 92.5353 125.446 91.817 125.675 91.124L126.362 89.0451C126.476 88.6986 126.617 88.36 126.705 88.0056L127.392 85.2338C127.506 84.7719 127.56 84.29 127.735 83.8479 127.964 83.2705 128.227 82.7055 128.422 82.1155 128.571 81.6638 128.636 81.1874 128.765 80.7296 128.865 80.3784 129.009 80.0413 129.109 79.6901 129.349 78.8425 129.73 76.8433 130.139 76.2254L130.825 75.186C130.94 74.724 131.003 74.2459 131.169 73.8 131.906 71.8158 131.772 73.0962 132.199 71.3747 132.34 70.8034 132.401 70.2136 132.542 69.6423 132.63 69.288 132.786 68.9541 132.886 68.6029 133.015 68.145 133.094 67.6731 133.229 67.2169 133.437 66.5173 133.774 65.8542 133.916 65.138 134.03 64.5606 134.128 63.9794 134.259 63.4056 134.906 60.5778 134.813 61.0367 135.633 58.5549L135.976 57.5155C135.862 55.4367 135.804 53.3538 135.633 51.2789 135.508 49.77 134.951 47.8354 134.603 46.4282 134.488 45.9662 134.352 45.5092 134.259 45.0422 133.731 42.3764 134.057 43.8805 133.229 40.5381 133.115 40.0761 133.061 39.5942 132.886 39.1521 132.657 38.5747 132.394 38.0097 132.199 37.4197 131.482 35.2484 132.227 36.4932 131.512 33.6084 131.363 33.0051 131.042 32.4583 130.825 31.876 130.698 31.534 130.634 31.1682 130.482 30.8366 129.946 29.6642 129.17 28.5969 128.765 27.3718 128.291 25.9373 128.623 26.6363 127.735 25.2929 127.472 24.2326 127.495 23.6652 126.705 22.8675 126.413 22.5731 126.018 22.4056 125.675 22.1746 125.241 20.86 125.384 20.7769 123.958 19.7492 123.663 19.5369 123.271 19.5182 122.928 19.4028 122.585 18.9408 122.332 18.3927 121.898 18.0168 121.509 17.6806 120.969 17.5801 120.524 17.3239 120.166 17.1173 119.863 16.8172 119.494 16.631 119.17 16.4677 118.788 16.4478 118.464 16.2844 118.095 16.0982 117.803 15.7777 117.434 15.5915 117.11 15.4281 116.736 15.3889 116.404 15.245 115.933 15.0415 115.475 14.8083 115.03 14.5521 114.672 14.3455 114.379 14.0232 114 13.8591 113.566 13.6715 113.085 13.6281 112.627 13.5126 112.283 13.2817 111.976 12.9837 111.597 12.8197 110.055 12.1532 110.53 12.8014 109.193 12.1267 107.2 11.1211 109.198 11.6523 106.789 10.7409 104.47 9.8633 106.32 10.8842 104.386 10.0479 101.836 8.94525 104.089 9.82154 101.982 8.66193 101.083 8.16728 100.087 7.84896 99.2351 7.27598L97.1749 5.89013C96.946 5.54359 96.838 5.07135 96.4881 4.85062 95.8743 4.46348 94.4278 4.15775 94.4278 4.15775 94.0845 3.81121 93.8018 3.39003 93.3977 3.11823 93.0966 2.91568 92.6914 2.93513 92.3676 2.7718 91.9985 2.58552 91.6958 2.28539 91.3375 2.07882 90.8931 1.82256 90.4084 1.6421 89.964 1.38584 89.6057 1.17927 89.311 0.862017 88.9339 0.69287 88.2724 0.396228 86.8736 0 86.8736 0 79.3197 0.362927 80.979 0.923967 79.6628 1.73239Z" stroke="#FF0000" stroke-miterlimit="8" fill="none" fill-rule="evenodd" transform="matrix(1.00018 0 -0 1 711.5 119.5)"/><rect x="0" y="0" width="7.99853" height="7" stroke="#548235" stroke-miterlimit="8" fill="#A9D18E" transform="matrix(1.00018 0 -0 1 763.5 106.5)"/><rect x="0" y="0" width="6.99874" height="8" stroke="#548235" stroke-miterlimit="8" fill="#A9D18E" transform="matrix(1.00018 0 -0 1 791.5 295.5)"/></g></svg>