<svg width="1323" height="189" xmlns="http://www.w3.org/2000/svg" xmlns:xlink="http://www.w3.org/1999/xlink" overflow="hidden"><defs><clipPath id="clip0"><path d="M0 0 1323 0 1323 189 0 189Z" fill-rule="evenodd" clip-rule="evenodd"/></clipPath></defs><g clip-path="url(#clip0)"><rect x="0" y="0" width="1322.83" height="189" fill="#FFFFFF" transform="scale(1.00013 1)"/><rect x="0" y="0" width="301.962" height="151" stroke="#7F6000" stroke-width="2.99958" stroke-miterlimit="8" fill="#FFD966" transform="matrix(1.00013 0 -0 1 19.5 19.5001)"/><text fill="#7F6000" font-family="Calibri,Calibri_MSFontService,sans-serif" font-weight="400" font-size="27" transform="matrix(1 0 0 0.999874 141.282 103)">Input</text><rect x="0" y="0" width="302.962" height="151" stroke="#203864" stroke-width="2.99958" stroke-miterlimit="8" fill="#8FAADC" transform="matrix(1.00013 0 -0 1 510.5 19.5001)"/><text fill="#203864" font-family="Calibri,Calibri_MSFontService,sans-serif" font-weight="400" font-size="27" transform="matrix(1 0 0 0.999874 623.245 103)">Modell</text><rect x="0" y="0" width="301.962" height="151" stroke="#7F6000" stroke-width="2.99958" stroke-miterlimit="8" fill="#FFD966" transform="matrix(1.00013 0 -0 1 1002.5 19.5001)"/><text fill="#7F6000" font-family="Calibri,Calibri_MSFontService,sans-serif" font-weight="400" font-size="27" transform="matrix(1 0 0 0.999874 1114.04 103)">Output</text><path d="M0.000150828-1.49979 181.458-1.48154 181.457 1.51804-0.000150828 1.49979ZM179.958-4.48127 188.957 0.0190026 179.957 4.51747Z" fill="#7F7F7F" transform="matrix(1.00013 0 -0 1 321.5 94.5001)"/><path d="M-0.000150828 1.49979-181.458 1.48154-181.458-1.51804 0.000150828-1.49979ZM-179.958 4.48127-188.957-0.0190026-179.958-4.51747Z" fill="#7F7F7F" transform="matrix(-1.00013 -0 -0 1 813.5 94.5191)"/><text fill="#203864" font-family="Calibri,Calibri_MSFontService,sans-serif" font-weight="400" font-size="27" transform="matrix(1 0 0 0.999874 596.562 64)">(White<tspan x="74.056" y="0">-</tspan><tspan x="82.2237" y="0">Box)</tspan></text></g></svg>