<svg width="1323" height="189" xmlns="http://www.w3.org/2000/svg" xmlns:xlink="http://www.w3.org/1999/xlink" overflow="hidden"><defs><clipPath id="clip0"><path d="M0 0 1323 0 1323 189 0 189Z" fill-rule="evenodd" clip-rule="evenodd"/></clipPath></defs><g clip-path="url(#clip0)"><rect x="0" y="0" width="1322.83" height="189" fill="#FFFFFF" transform="scale(1.00013 1)"/><rect x="0" y="0" width="301.962" height="151" stroke="#7F6000" stroke-width="2.99958" stroke-miterlimit="8" fill="#FFD966" transform="matrix(1.00013 0 -0 1 19.5 19.5001)"/><text fill="#7F6000" font-family="Calibri,Calibri_MSFontService,sans-serif" font-weight="400" font-size="27" transform="matrix(1 0 0 0.999874 141.532 103)">i<tspan x="6.16745" y="0">nput</tspan></text><rect x="0" y="0" width="302.962" height="151" stroke="#203864" stroke-width="2.99958" stroke-miterlimit="8" fill="#8FAADC" transform="matrix(1.00013 0 -0 1 510.5 19.5001)"/><text fill="#203864" font-family="Calibri,Calibri_MSFontService,sans-serif" font-weight="400" font-size="27" transform="matrix(1 0 0 0.999874 627.079 103)">model</text><rect x="0" y="0" width="301.962" height="151" stroke="#7F6000" stroke-width="2.99958" stroke-miterlimit="8" fill="#FFD966" transform="matrix(1.00013 0 -0 1 1002.5 19.5001)"/><text fill="#7F6000" font-family="Calibri,Calibri_MSFontService,sans-serif" font-weight="400" font-size="27" transform="matrix(1 0 0 0.999874 1115.88 103)">o<tspan x="14.0018" y="0">utput</tspan></text><path d="M0.000251384-2.49969 176.458-2.48194 176.458 2.51743-0.000251384 2.49969ZM173.959-7.48156 188.957 0.0190026 173.958 7.51655Z" fill="#7F7F7F" transform="matrix(1.00013 0 -0 1 321.5 94.5001)"/><path d="M-0.000251383 2.49969-176.459 2.48194-176.458-2.51743 0.000251383-2.49969ZM-173.959 7.48156-188.957-0.0190026-173.958-7.51655Z" fill="#7F7F7F" transform="matrix(-1.00013 -0 -0 1 813.5 94.5191)"/></g></svg>