<svg width="1323" height="359" xmlns="http://www.w3.org/2000/svg" xmlns:xlink="http://www.w3.org/1999/xlink" overflow="hidden"><defs><clipPath id="clip0"><path d="M0 0 1323 0 1323 359 0 359Z" fill-rule="evenodd" clip-rule="evenodd"/></clipPath></defs><g clip-path="url(#clip0)"><rect x="0" y="0" width="1322.83" height="359" fill="#FFFFFF" transform="scale(1.00013 1)"/><rect x="0" y="0" width="301.962" height="151" stroke="#7F6000" stroke-width="2.99958" stroke-miterlimit="8" fill="#FFD966" transform="matrix(1.00013 0 -0 1 19.5 19.5001)"/><text fill="#7F6000" font-family="Calibri,Calibri_MSFontService,sans-serif" font-weight="400" font-size="27" transform="matrix(1 0 0 0.999874 141.282 103)">Input</text><rect x="0" y="0" width="301.962" height="151" stroke="#203864" stroke-width="2.99958" stroke-miterlimit="8" fill="#8FAADC" transform="matrix(1.00013 0 -0 1 1002.5 104.5)"/><text fill="#203864" font-family="Calibri,Calibri_MSFontService,sans-serif" font-weight="400" font-size="27" transform="matrix(1 0 0 0.999874 1114.63 188)">Modell</text><rect x="0" y="0" width="301.962" height="151" stroke="#7F6000" stroke-width="2.99958" stroke-miterlimit="8" fill="#FFD966" transform="matrix(1.00013 0 -0 1 19.5 189.5)"/><text fill="#7F6000" font-family="Calibri,Calibri_MSFontService,sans-serif" font-weight="400" font-size="27" transform="matrix(1 0 0 0.999874 131.281 273)">Output</text><path d="M0.329154-1.46323 181.97 39.3969 181.311 42.3234-0.329154 1.46323ZM181.165 36.1413 188.957 42.5059 179.19 44.9207Z" fill="#7F7F7F" transform="matrix(1.00013 0 -0 1 321.5 94.5001)"/><path d="M-0.329153 1.46323-181.969-39.3968-181.311-42.3233 0.329153-1.46323ZM-181.165-36.1412-188.957-42.5058-179.19-44.9206Z" fill="#7F7F7F" transform="matrix(-1.00013 -0 -0 1 321.5 265.006)"/><text fill="#203864" font-family="Calibri,Calibri_MSFontService,sans-serif" font-weight="400" font-size="27" transform="matrix(1 0 0 0.999874 1092.38 147)">(Blac<tspan x="53.0066" y="0">k</tspan><tspan x="65.1748" y="0">-</tspan><tspan x="73.3425" y="0">Box</tspan><tspan x="112.827" y="0">)</tspan></text><rect x="0" y="0" width="302.962" height="151" stroke="#385723" stroke-width="2.99958" stroke-miterlimit="8" fill="#A9D18E" transform="matrix(1.00013 0 -0 1 510.5 104.5)"/><text fill="#385723" font-family="Calibri,Calibri_MSFontService,sans-serif" font-weight="400" font-size="27" transform="matrix(1 0 0 0.999874 596.865 188)">ML <tspan x="40.005" y="0">Strategy</tspan></text><path d="M8.33304e-07-1.49979 181.458-1.49969 181.458 1.49989-8.33304e-07 1.49979ZM179.958-4.49927 188.957 0.000104987 179.958 4.49947Z" fill="#7F7F7F" transform="matrix(1.00013 0 -0 1 813.5 179.5)"/></g></svg>