<svg width="1323" height="359" xmlns="http://www.w3.org/2000/svg" xmlns:xlink="http://www.w3.org/1999/xlink" overflow="hidden"><defs><clipPath id="clip0"><path d="M0 0 1323 0 1323 359 0 359Z" fill-rule="evenodd" clip-rule="evenodd"/></clipPath></defs><g clip-path="url(#clip0)"><rect x="0" y="0" width="1322.83" height="359" fill="#FFFFFF" transform="scale(1.00013 1)"/><rect x="0" y="0" width="301.962" height="151" stroke="#7F6000" stroke-width="2.99958" stroke-miterlimit="8" fill="#FFD966" transform="matrix(1.00013 0 -0 1 19.5 19.5001)"/><text fill="#7F6000" font-family="Calibri,Calibri_MSFontService,sans-serif" font-weight="400" font-size="27" transform="matrix(1 0 0 0.999874 141.532 103)">i<tspan x="6.16745" y="0">nput</tspan></text><rect x="0" y="0" width="301.962" height="151" stroke="#203864" stroke-width="2.99958" stroke-miterlimit="8" fill="#8FAADC" transform="matrix(1.00013 0 -0 1 1002.5 104.5)"/><text fill="#203864" font-family="Calibri,Calibri_MSFontService,sans-serif" font-weight="400" font-size="27" transform="matrix(1 0 0 0.999874 1118.46 188)">model</text><rect x="0" y="0" width="301.962" height="151" stroke="#7F6000" stroke-width="2.99958" stroke-miterlimit="8" fill="#FFD966" transform="matrix(1.00013 0 -0 1 19.5 189.5)"/><text fill="#7F6000" font-family="Calibri,Calibri_MSFontService,sans-serif" font-weight="400" font-size="27" transform="matrix(1 0 0 0.999874 133.115 273)">o<tspan x="14.0018" y="0">utput</tspan></text><path d="M0.548597-2.43874 177.311 37.3242 176.214 42.2017-0.548597 2.43874ZM175.97 31.8981 188.957 42.5059 172.678 46.5306Z" fill="#7F7F7F" transform="matrix(1.00013 0 -0 1 321.5 94.5001)"/><path d="M-0.548596 2.43874-177.311-37.3241-176.214-42.2016 0.548596-2.43874ZM-175.97-31.898-188.957-42.5058-172.678-46.5305Z" fill="#7F7F7F" transform="matrix(-1.00013 -0 -0 1 321.5 265.006)"/><rect x="0" y="0" width="302.962" height="151" stroke="#385723" stroke-width="2.99958" stroke-miterlimit="8" fill="#A9D18E" transform="matrix(1.00013 0 -0 1 510.5 104.5)"/><text fill="#385723" font-family="Calibri,Calibri_MSFontService,sans-serif" font-weight="400" font-size="27" transform="matrix(1 0 0 0.999874 597.932 188)">ML <tspan x="40.0051" y="0">s</tspan><tspan x="50.2063" y="0">trategy</tspan></text><path d="M1.38886e-06-2.49969 176.458-2.49959 176.458 2.49978-1.38886e-06 2.49969ZM173.959-7.49896 188.957 0.000104987 173.959 7.49915Z" fill="#7F7F7F" transform="matrix(1.00013 0 -0 1 813.5 179.5)"/></g></svg>